<svg width="28" height="28" viewBox="0 0 28 28" fill="none" xmlns="http://www.w3.org/2000/svg">
<path d="M14.9677 3.79199H8.36435C7.74018 3.79199 7.22102 3.79199 6.79518 3.82699C6.35185 3.86199 5.93652 3.94133 5.54335 4.14199C4.93954 4.44961 4.44863 4.94051 4.14102 5.54433C3.94035 5.93749 3.86102 6.35283 3.82602 6.79616C3.79102 7.22199 3.79102 7.74116 3.79102 8.36533V19.6353C3.79102 20.2595 3.79102 20.7787 3.82602 21.2045C3.86102 21.6478 3.94035 22.0632 4.14102 22.4563C4.44863 23.0601 4.93954 23.551 5.54335 23.8587C5.75102 23.9648 6.00885 24.0068 6.16168 24.029C6.35652 24.0582 6.59102 24.0803 6.84302 24.099C7.34935 24.1363 7.98052 24.1608 8.62452 24.1772C9.73518 24.204 10.847 24.2087 11.9577 24.2087C12.1897 24.2087 12.4123 24.1165 12.5764 23.9524C12.7405 23.7883 12.8327 23.5657 12.8327 23.3337C12.8327 23.1016 12.7405 22.879 12.5764 22.7149C12.4123 22.5508 12.1897 22.4587 11.9577 22.4587C11.3043 22.4587 9.93352 22.4587 8.66768 22.4272C8.10175 22.4155 7.53616 22.391 6.97135 22.3537C6.73724 22.3358 6.55213 22.3171 6.41602 22.2977L6.29235 22.2767C6.03787 22.1354 5.83146 21.9213 5.69968 21.6618C5.64602 21.5568 5.59702 21.397 5.57018 21.061C5.54218 20.7168 5.54102 20.2677 5.54102 19.6003V8.40033C5.54102 7.73299 5.54102 7.28383 5.57018 6.93849C5.59702 6.60366 5.64602 6.44383 5.69968 6.33883C5.83957 6.06398 6.063 5.84055 6.33785 5.70066C6.44285 5.64699 6.60268 5.59799 6.93752 5.57116C7.28285 5.54316 7.73085 5.54199 8.39935 5.54199H14.9327C15.6 5.54199 16.0492 5.54199 16.3933 5.57116C16.7293 5.59799 16.8892 5.64699 16.9953 5.70066C17.2695 5.84066 17.4923 6.06349 17.6323 6.33883C17.686 6.44383 17.735 6.60366 17.7618 6.93849C17.7898 7.28383 17.791 7.73183 17.791 8.40033V11.9587C17.791 12.1907 17.8832 12.4133 18.0473 12.5774C18.2114 12.7415 18.434 12.8337 18.666 12.8337C18.8981 12.8337 19.1206 12.7415 19.2847 12.5774C19.4488 12.4133 19.541 12.1907 19.541 11.9587V8.36533C19.541 7.74116 19.541 7.22199 19.506 6.79616C19.471 6.35283 19.3917 5.93749 19.191 5.54433C18.884 4.94087 18.394 4.45 17.791 4.14199C17.3967 3.94133 16.9813 3.86199 16.538 3.82699C16.1122 3.79199 15.593 3.79199 14.9688 3.79199" fill="black"/>
<path d="M16.7668 14.292H21.7345C22.1953 14.292 22.5932 14.292 22.921 14.3188C23.2675 14.3468 23.6117 14.4098 23.9418 14.5778C24.4365 14.8298 24.8378 15.2312 25.0898 15.7258C25.2578 16.056 25.3208 16.4002 25.3488 16.7467C25.3757 17.0733 25.3757 17.4723 25.3757 17.9332V20.5675C25.3757 21.0283 25.3757 21.4262 25.3488 21.754C25.3308 22.108 25.2427 22.455 25.0898 22.7748C24.8384 23.269 24.4369 23.6709 23.943 23.9228C23.6117 24.0908 23.2663 24.1538 22.921 24.1818C22.5943 24.2087 22.1953 24.2087 21.7345 24.2087H16.7668C16.306 24.2087 15.9082 24.2087 15.5803 24.1818C15.2263 24.1638 14.8793 24.0757 14.5595 23.9228C14.0653 23.6714 13.6634 23.2699 13.4115 22.776C13.2584 22.4558 13.1704 22.1084 13.1525 21.754C13.1257 21.4273 13.1257 21.0283 13.1257 20.5675V17.932C13.1257 17.4712 13.1257 17.0733 13.1525 16.7455C13.1705 16.3914 13.2586 16.0445 13.4115 15.7247C13.6632 15.2303 14.0651 14.8284 14.5595 14.5767C14.8793 14.4237 15.2263 14.3357 15.5803 14.3177C15.907 14.2908 16.306 14.2908 16.7668 14.2908M14.8757 17.967V18.9587H23.6257V17.967C23.6257 17.6532 23.6257 17.4082 23.6198 17.2087H14.8815C14.8757 17.4082 14.8757 17.6532 14.8757 17.967ZM6.70898 8.16699C6.70898 7.93493 6.80117 7.71237 6.96527 7.54827C7.12936 7.38418 7.35192 7.29199 7.58398 7.29199H12.2507C12.4827 7.29199 12.7053 7.38418 12.8694 7.54827C13.0335 7.71237 13.1257 7.93493 13.1257 8.16699C13.1257 8.39906 13.0335 8.62162 12.8694 8.78571C12.7053 8.94981 12.4827 9.04199 12.2507 9.04199H7.58398C7.35192 9.04199 7.12936 8.94981 6.96527 8.78571C6.80117 8.62162 6.70898 8.39906 6.70898 8.16699ZM7.58398 10.792C7.35192 10.792 7.12936 10.8842 6.96527 11.0483C6.80117 11.2124 6.70898 11.4349 6.70898 11.667C6.70898 11.8991 6.80117 12.1216 6.96527 12.2857C7.12936 12.4498 7.35192 12.542 7.58398 12.542H15.7507C15.9827 12.542 16.2053 12.4498 16.3694 12.2857C16.5335 12.1216 16.6257 11.8991 16.6257 11.667C16.6257 11.4349 16.5335 11.2124 16.3694 11.0483C16.2053 10.8842 15.9827 10.792 15.7507 10.792H7.58398ZM6.70898 15.167C6.70898 14.9349 6.80117 14.7124 6.96527 14.5483C7.12936 14.3842 7.35192 14.292 7.58398 14.292H11.6673C11.8994 14.292 12.1219 14.3842 12.286 14.5483C12.4501 14.7124 12.5423 14.9349 12.5423 15.167C12.5423 15.3991 12.4501 15.6216 12.286 15.7857C12.1219 15.9498 11.8994 16.042 11.6673 16.042H7.58398C7.35192 16.042 7.12936 15.9498 6.96527 15.7857C6.80117 15.6216 6.70898 15.3991 6.70898 15.167ZM7.58398 18.9587C7.35192 18.9587 7.12936 19.0508 6.96527 19.2149C6.80117 19.379 6.70898 19.6016 6.70898 19.8337C6.70898 20.0657 6.80117 20.2883 6.96527 20.4524C7.12936 20.6165 7.35192 20.7087 7.58398 20.7087H9.91732C10.1494 20.7087 10.3719 20.6165 10.536 20.4524C10.7001 20.2883 10.7923 20.0657 10.7923 19.8337C10.7923 19.6016 10.7001 19.379 10.536 19.2149C10.3719 19.0508 10.1494 18.9587 9.91732 18.9587H7.58398Z" fill="black"/>
</svg>
