<svg width="28" height="28" viewBox="0 0 28 28" fill="none" xmlns="http://www.w3.org/2000/svg">
<path d="M21.875 24.9375C23.5664 24.9375 24.9375 23.5664 24.9375 21.875C24.9375 20.1836 23.5664 18.8125 21.875 18.8125C20.1836 18.8125 18.8125 20.1836 18.8125 21.875C18.8125 23.5664 20.1836 24.9375 21.875 24.9375Z" stroke="black" stroke-width="2.5" stroke-linecap="round" stroke-linejoin="round"/>
<path d="M6.125 24.9375C7.81637 24.9375 9.1875 23.5664 9.1875 21.875C9.1875 20.1836 7.81637 18.8125 6.125 18.8125C4.43363 18.8125 3.0625 20.1836 3.0625 21.875C3.0625 23.5664 4.43363 24.9375 6.125 24.9375Z" stroke="black" stroke-width="2.5" stroke-linecap="round" stroke-linejoin="round"/>
<path d="M6.125 9.1875C7.81637 9.1875 9.1875 7.81637 9.1875 6.125C9.1875 4.43363 7.81637 3.0625 6.125 3.0625C4.43363 3.0625 3.0625 4.43363 3.0625 6.125C3.0625 7.81637 4.43363 9.1875 6.125 9.1875Z" stroke="black" stroke-width="2.5" stroke-linecap="round" stroke-linejoin="round"/>
<path d="M16.1875 3.0625L13.5625 6.5625L16.1875 10.0625M21.4375 17.9375V9.1875C21.4375 7.4375 20.5625 6.5625 18.8125 6.5625H15.3125M6.5625 10.0625V17.9375" stroke="black" stroke-width="2.5" stroke-linecap="round" stroke-linejoin="round"/>
</svg>
