<svg width="28" height="28" viewBox="0 0 28 28" fill="none" xmlns="http://www.w3.org/2000/svg">
<g clip-path="url(#clip0_868_877)">
<path d="M21.7771 1.55566H6.22157C5.80901 1.55566 5.41335 1.71955 5.12163 2.01128C4.8299 2.303 4.66602 2.69866 4.66602 3.11122V24.889C4.66602 25.3016 4.8299 25.6972 5.12163 25.9889C5.41335 26.2807 5.80901 26.4446 6.22157 26.4446H21.7771C22.1897 26.4446 22.5853 26.2807 22.8771 25.9889C23.1688 25.6972 23.3327 25.3016 23.3327 24.889V3.11122C23.3327 2.69866 23.1688 2.303 22.8771 2.01128C22.5853 1.71955 22.1897 1.55566 21.7771 1.55566ZM10.1105 20.2223H8.5549V18.6668H10.1105V20.2223ZM10.1105 17.1112H8.5549V15.5557H10.1105V17.1112ZM10.1105 14.0001H8.5549V12.4446H10.1105V14.0001ZM10.1105 10.889H8.5549V9.33344H10.1105V10.889ZM10.1105 7.77789H8.5549V6.22233H10.1105V7.77789ZM19.4438 20.2223H11.666V18.6668H19.4438V20.2223ZM19.4438 17.1112H11.666V15.5557H19.4438V17.1112ZM19.4438 14.0001H11.666V12.4446H19.4438V14.0001ZM19.4438 10.889H11.666V9.33344H19.4438V10.889ZM19.4438 7.77789H11.666V6.22233H19.4438V7.77789Z" fill="black"/>
</g>
<defs>
<clipPath id="clip0_868_877">
<rect width="28" height="28" fill="white"/>
</clipPath>
</defs>
</svg>
